<svg width="22" height="22" viewBox="0 0 22 22" fill="none" xmlns="http://www.w3.org/2000/svg">
<path d="M11.3546 5.68426C8.333 5.68426 5.89574 8.02455 5.89574 10.926C5.89574 13.8274 8.333 16.1677 11.3546 16.1677C14.3763 16.1677 16.8135 13.8274 16.8135 10.926C16.8135 8.02455 14.3763 5.68426 11.3546 5.68426ZM11.3546 14.3337C9.40197 14.3337 7.80564 12.8055 7.80564 10.926C7.80564 9.04643 9.39722 7.51817 11.3546 7.51817C13.312 7.51817 14.9036 9.04643 14.9036 10.926C14.9036 12.8055 13.3073 14.3337 11.3546 14.3337ZM18.3101 5.46985C18.3101 6.14958 17.74 6.69246 17.0368 6.69246C16.3289 6.69246 15.7635 6.14502 15.7635 5.46985C15.7635 4.79468 16.3337 4.24724 17.0368 4.24724C17.74 4.24724 18.3101 4.79468 18.3101 5.46985ZM21.9256 6.7107C21.8448 5.07296 21.4552 3.62225 20.2057 2.42702C18.961 1.23178 17.4501 0.857702 15.7445 0.775586C13.9867 0.679785 8.71783 0.679785 6.95996 0.775586C5.25911 0.85314 3.7483 1.22722 2.49879 2.42246C1.24928 3.61769 0.864447 5.0684 0.77893 6.70614C0.679159 8.39407 0.679159 13.4533 0.77893 15.1412C0.859696 16.779 1.24928 18.2297 2.49879 19.4249C3.7483 20.6201 5.25436 20.9942 6.95996 21.0763C8.71783 21.1721 13.9867 21.1721 15.7445 21.0763C17.4501 20.9988 18.961 20.6247 20.2057 19.4249C21.4505 18.2297 21.8401 16.779 21.9256 15.1412C22.0253 13.4533 22.0253 8.39863 21.9256 6.7107ZM19.6546 16.9523C19.284 17.8465 18.5666 18.5353 17.6307 18.8957C16.2291 19.4295 12.9034 19.3063 11.3546 19.3063C9.8058 19.3063 6.47536 19.4249 5.07857 18.8957C4.14738 18.5399 3.42998 17.851 3.05465 16.9523C2.49879 15.6065 2.62706 12.4132 2.62706 10.926C2.62706 9.43876 2.50354 6.24082 3.05465 4.8996C3.42523 4.00546 4.14263 3.3166 5.07857 2.95621C6.48011 2.42246 9.8058 2.54563 11.3546 2.54563C12.9034 2.54563 16.2339 2.42702 17.6307 2.95621C18.5619 3.31204 19.2793 4.0009 19.6546 4.8996C20.2105 6.24538 20.0822 9.43876 20.0822 10.926C20.0822 12.4132 20.2105 15.6111 19.6546 16.9523Z" fill="#545776"/>
</svg>
