<svg width="21" height="20" viewBox="0 0 21 20" fill="none" xmlns="http://www.w3.org/2000/svg">
<path d="M18.5656 5.22607C18.5786 5.43104 18.5786 5.63605 18.5786 5.84101C18.5786 12.0928 14.3626 19.2963 6.65697 19.2963C4.28301 19.2963 2.07772 18.5203 0.222656 17.1733C0.559951 17.2172 0.884228 17.2319 1.2345 17.2319C3.1933 17.2319 4.99649 16.4852 6.43643 15.2114C4.59435 15.1675 3.05063 13.8058 2.51875 11.9318C2.77822 11.9756 3.03765 12.0049 3.3101 12.0049C3.68629 12.0049 4.06251 11.9464 4.41275 11.8439C2.49284 11.4046 1.05286 9.50131 1.05286 7.20264V7.1441C1.61065 7.49549 2.25932 7.7151 2.94681 7.74435C1.81821 6.89514 1.07881 5.44568 1.07881 3.80586C1.07881 2.9274 1.28633 2.12213 1.64958 1.41935C3.7122 4.28903 6.81262 6.16307 10.2892 6.36808C10.2243 6.01669 10.1854 5.6507 10.1854 5.28466C10.1854 2.67849 12.0534 0.555542 14.3755 0.555542C15.5819 0.555542 16.6716 1.12655 17.437 2.04894C18.3839 1.84398 19.292 1.44864 20.0963 0.906933C19.785 2.00505 19.1234 2.92745 18.2542 3.51305C19.0975 3.41061 19.9147 3.14701 20.6671 2.78102C20.0964 3.71802 19.3829 4.55254 18.5656 5.22607Z" fill="#545776"/>
</svg>
